# xmcd
#
# Track frame offsets:
#	150
#	13225
#	25470
#	36392
#	47430
#	61002
#	74137
#	85207
#	98080
#	109092
#
# Disc length: 1600 seconds
#
# Revision: 1
# Processed by: cddbd v1.5PL3 Copyright (c) Steve Scherf et al.
# Submitted via: audiograbber 1.83.01
#
DISCID=84063e0a
DTITLE=Lupillo Rivera - El Moreño
DYEAR=1900
DGENRE=Latin
TTITLE0=El Moreño
TTITLE1=Grande Entre Grandes
TTITLE2=Las Tres Cosechas
TTITLE3=Ayer Bajé De La Sierra
TTITLE4=Perros Bajdores
TTITLE5=El Avionazo
TTITLE6=Carne Quemada
TTITLE7=Toros De La Mafia
TTITLE8=Chaka De Culiacán
TTITLE9=Siembra De San Ignacio
EXTD=
EXTT0=
EXTT1=
EXTT2=
EXTT3=
EXTT4=
EXTT5=
EXTT6=
EXTT7=
EXTT8=
EXTT9=
PLAYORDER=
